<svg width="30" height="30" viewBox="0 0 30 30" fill="none" xmlns="http://www.w3.org/2000/svg">
<path d="M18.1392 16.4254L18.2661 16.5121L18.3839 16.6161L19.5536 17.787L19.8509 17.6349C21.4776 16.8401 23.21 16.5947 24.8891 17.292C25.152 17.4011 25.4086 17.5327 25.6579 17.6871C27.2879 18.6961 28.2383 20.385 28.6618 22.5051C28.9587 23.9916 28.9743 25.5423 28.8259 26.9878L28.7865 27.3344L28.7501 27.5994C28.7444 27.6364 28.739 27.6698 28.734 27.6994L28.7006 27.8487L28.6363 28.0215L28.5571 28.1675L28.4705 28.2879L28.3839 28.3838L28.328 28.4364L28.2204 28.5214L28.1098 28.5915L27.986 28.6519L27.8623 28.6966L27.7068 28.7328L27.3435 28.7854L26.9878 28.8258C25.5423 28.9742 23.9916 28.9587 22.5052 28.6617C20.3851 28.2383 18.6962 27.2878 17.6872 25.6579C17.5328 25.4085 17.4012 25.152 17.292 24.889C16.5948 23.2099 16.8401 21.4776 17.6349 19.8509L17.787 19.5536L16.6161 18.3838C16.128 17.8957 16.128 17.1042 16.6161 16.6161C17.0292 16.203 17.6594 16.1395 18.1392 16.4254ZM13.5487 16.6161C13.9993 17.0667 14.034 17.7757 13.6527 18.2661L13.5487 18.3838L12.3778 19.5536L12.5298 19.8509C13.3247 21.4776 13.57 23.2099 12.8728 24.889C12.7636 25.152 12.632 25.4085 12.4776 25.6579C11.4686 27.2878 9.77971 28.2383 7.65959 28.6617C6.17314 28.9587 4.62244 28.9742 3.17694 28.8258L2.6801 28.7667L2.45746 28.7326L2.37907 28.7171L2.26702 28.6853L2.14246 28.6359L2.0378 28.5817L1.91679 28.5016L1.7809 28.3838L1.7283 28.3279L1.6433 28.2204L1.55742 28.08L1.51559 27.9926L1.46412 27.8487L1.43304 27.7128L1.37944 27.3438L1.33891 26.9878C1.19049 25.5423 1.20606 23.9916 1.50298 22.5051C1.92647 20.385 2.87689 18.6961 4.50684 17.6871C4.75618 17.5328 5.01274 17.4011 5.27564 17.292C6.95478 16.5947 8.68716 16.84 10.3139 17.6349L10.6112 17.787L11.7809 16.6161C12.2691 16.1279 13.0605 16.1279 13.5487 16.6161ZM19.669 21.4375C19.3384 22.3123 19.2839 23.1671 19.6009 23.9303C19.6586 24.0694 19.729 24.2066 19.8128 24.342C20.4042 25.2973 21.4934 25.9102 22.9949 26.2102C23.5249 26.3161 24.0765 26.3779 24.6319 26.4033L19.669 21.4375ZM10.4954 21.4363L5.53231 26.4033C6.08786 26.3779 6.63967 26.3161 7.16989 26.2102C8.67143 25.9102 9.76056 25.2973 10.352 24.342C10.4358 24.2066 10.5062 24.0694 10.5639 23.9303C10.881 23.1667 10.8263 22.3114 10.4954 21.4363ZM21.4376 19.6689L26.4033 24.6318C26.3779 24.0765 26.3161 23.5249 26.2102 22.9948C25.9103 21.4933 25.2974 20.4042 24.342 19.8128C24.2066 19.7289 24.0695 19.6586 23.9304 19.6008C23.1671 19.2839 22.3123 19.3384 21.4376 19.6689ZM6.23438 19.6008C6.09528 19.6586 5.95815 19.7289 5.82274 19.8128C4.86738 20.4042 4.25448 21.4933 3.95455 22.9948C3.84868 23.5249 3.78684 24.0765 3.76145 24.6318L8.7272 19.6689C7.85246 19.3384 6.99765 19.2839 6.23438 19.6008ZM26.9878 1.17416L27.3439 1.21469L27.7332 1.27186L27.8622 1.30342L28.0049 1.35619L28.1392 1.42551L28.2552 1.50374L28.3839 1.61615L28.4365 1.67203L28.5215 1.77958L28.5915 1.89021L28.6492 2.00741L28.6984 2.14347L28.7317 2.28718L28.7853 2.65616L28.8259 3.01219C28.9743 4.4577 28.9587 6.0084 28.6618 7.49485C28.2383 9.61496 27.2879 11.3039 25.6579 12.3129C25.4086 12.4673 25.152 12.5989 24.8891 12.7081C23.21 13.4053 21.4776 13.1599 19.8509 12.3651L19.5536 12.213L18.3839 13.3839C17.8957 13.8721 17.1043 13.8721 16.6161 13.3839C16.1655 12.9333 16.1308 12.2243 16.5121 11.7339L16.6161 11.6162L17.787 10.4464L17.6349 10.1491C16.8401 8.52241 16.5948 6.79003 17.292 5.11088C17.4012 4.84798 17.5328 4.59143 17.6872 4.34209C18.6962 2.71214 20.3851 1.76172 22.5052 1.33823C23.9916 1.04131 25.5423 1.02574 26.9878 1.17416ZM7.6596 1.33823C9.77971 1.76172 11.4686 2.71214 12.4776 4.3421C12.632 4.59143 12.7636 4.84798 12.8728 5.11088C13.57 6.79003 13.3247 8.52241 12.5298 10.1491L12.3778 10.4464L13.5487 11.6162C14.0368 12.1043 14.0368 12.8958 13.5487 13.3839C13.0981 13.8346 12.389 13.8692 11.8987 13.4879L11.7809 13.3839L10.6112 12.213L10.3139 12.3651C8.68716 13.16 6.95478 13.4053 5.27564 12.708C5.01274 12.5989 4.75618 12.4672 4.50684 12.3129C2.87688 11.3039 1.92647 9.61496 1.50298 7.49485C1.20606 6.0084 1.19049 4.45769 1.33891 3.01219L1.37944 2.65616L1.43304 2.28718L1.46615 2.14496L1.52094 1.99511L1.59714 1.84938L1.69737 1.70831L1.7809 1.61615L1.83678 1.56355L1.94433 1.47855L2.06049 1.40576L2.17878 1.34808L2.30244 1.30345C2.35272 1.28811 2.40511 1.27576 2.45844 1.26684L2.67644 1.23371L2.98856 1.19456C3.04789 1.18778 3.11075 1.18095 3.17694 1.17416C4.62244 1.02574 6.17314 1.04131 7.6596 1.33823ZM26.4033 5.36816L21.4376 10.3311C22.3123 10.6616 23.1671 10.7161 23.9304 10.3992C24.0695 10.3414 24.2066 10.2711 24.342 10.1872C25.2974 9.59581 25.9103 8.50669 26.2102 7.00515C26.3161 6.47511 26.3779 5.92351 26.4033 5.36816ZM3.76145 5.36816C3.78684 5.9235 3.84867 6.47511 3.95455 7.00515C4.25448 8.50669 4.86738 9.59581 5.82273 10.1872C5.95815 10.2711 6.09528 10.3414 6.23438 10.3992C6.99765 10.7161 7.85246 10.6616 8.7272 10.3311L3.76145 5.36816ZM5.53231 3.59668L10.4954 8.56371C10.8263 7.68853 10.881 6.83326 10.5639 6.06962C10.5061 5.93052 10.4358 5.7934 10.352 5.65799C9.76056 4.70263 8.67143 4.08973 7.16989 3.7898C6.63967 3.68389 6.08785 3.62205 5.53231 3.59668ZM24.6319 3.5967C24.0765 3.62209 23.5249 3.68393 22.9949 3.7898C21.4934 4.08973 20.4042 4.70263 19.8128 5.65798C19.729 5.7934 19.6587 5.93052 19.6009 6.06962C19.2839 6.8329 19.3384 7.68771 19.669 8.56246L24.6319 3.5967Z" fill="#219653"/>
</svg>
