<svg width="30" height="30" viewBox="0 0 30 30" fill="none" xmlns="http://www.w3.org/2000/svg">
<path d="M18.1393 16.4254L18.2662 16.5121L18.3839 16.6161L19.5537 17.787L19.851 17.6349C21.4777 16.8401 23.21 16.5947 24.8891 17.292C25.1521 17.4011 25.4086 17.5327 25.658 17.6871C27.2879 18.6961 28.2384 20.385 28.6618 22.5051C28.9588 23.9916 28.9743 25.5423 28.8259 26.9878L28.7866 27.3344L28.7501 27.5994C28.7445 27.6364 28.7391 27.6698 28.7341 27.6994L28.7007 27.8487L28.6364 28.0215L28.5572 28.1675L28.4706 28.2879L28.3839 28.3838L28.328 28.4364L28.2205 28.5214L28.1099 28.5915L27.986 28.6519L27.8624 28.6966L27.7069 28.7328L27.3435 28.7854L26.9879 28.8258C25.5424 28.9742 23.9917 28.9587 22.5052 28.6617C20.3851 28.2383 18.6962 27.2878 17.6872 25.6579C17.5328 25.4085 17.4012 25.152 17.292 24.889C16.5948 23.2099 16.8402 21.4776 17.635 19.8509L17.7871 19.5536L16.6162 18.3838C16.128 17.8957 16.128 17.1042 16.6162 16.6161C17.0292 16.203 17.6594 16.1395 18.1393 16.4254ZM13.5487 16.6161C13.9993 17.0667 14.034 17.7757 13.6527 18.2661L13.5487 18.3838L12.3778 19.5536L12.5299 19.8509C13.3247 21.4776 13.5701 23.2099 12.8728 24.889C12.7637 25.152 12.632 25.4085 12.4777 25.6579C11.4686 27.2878 9.77975 28.2383 7.65964 28.6617C6.17319 28.9587 4.62249 28.9742 3.17699 28.8258L2.68015 28.7667L2.45751 28.7326L2.37911 28.7171L2.26707 28.6853L2.1425 28.6359L2.03784 28.5817L1.91683 28.5016L1.78095 28.3838L1.72834 28.3279L1.64334 28.2204L1.55747 28.08L1.51564 27.9926L1.46417 27.8487L1.43309 27.7128L1.37948 27.3438L1.33895 26.9878C1.19054 25.5423 1.20611 23.9916 1.50303 22.5051C1.92652 20.385 2.87693 18.6961 4.50689 17.6871C4.75623 17.5328 5.01278 17.4011 5.27569 17.292C6.95483 16.5947 8.6872 16.84 10.3139 17.6349L10.6112 17.787L11.781 16.6161C12.2691 16.1279 13.0606 16.1279 13.5487 16.6161ZM19.669 21.4375C19.3385 22.3123 19.284 23.1671 19.6009 23.9303C19.6587 24.0694 19.729 24.2066 19.8129 24.342C20.4043 25.2973 21.4934 25.9102 22.9949 26.2102C23.525 26.3161 24.0766 26.3779 24.6319 26.4033L19.669 21.4375ZM10.4954 21.4363L5.53235 26.4033C6.0879 26.3779 6.63971 26.3161 7.16994 26.2102C8.67148 25.9102 9.7606 25.2973 10.352 24.342C10.4359 24.2066 10.5062 24.0694 10.564 23.9303C10.881 23.1667 10.8264 22.3114 10.4954 21.4363ZM21.4376 19.6689L26.4034 24.6318C26.378 24.0765 26.3162 23.5249 26.2103 22.9948C25.9103 21.4933 25.2974 20.4042 24.3421 19.8128C24.2067 19.7289 24.0695 19.6586 23.9304 19.6008C23.1672 19.2839 22.3124 19.3384 21.4376 19.6689ZM6.23442 19.6008C6.09532 19.6586 5.9582 19.7289 5.82278 19.8128C4.86742 20.4042 4.25453 21.4933 3.9546 22.9948C3.84872 23.5249 3.78689 24.0765 3.7615 24.6318L8.72725 19.6689C7.85251 19.3384 6.9977 19.2839 6.23442 19.6008ZM26.9879 1.17416L27.3439 1.21469L27.7332 1.27186L27.8622 1.30342L28.005 1.35619L28.1393 1.42551L28.2552 1.50374L28.3839 1.61615L28.4365 1.67203L28.5215 1.77958L28.5916 1.89021L28.6492 2.00741L28.6984 2.14347L28.7318 2.28718L28.7854 2.65616L28.8259 3.01219C28.9743 4.4577 28.9588 6.0084 28.6618 7.49485C28.2384 9.61496 27.2879 11.3039 25.658 12.3129C25.4086 12.4673 25.1521 12.5989 24.8891 12.7081C23.21 13.4053 21.4777 13.1599 19.851 12.3651L19.5537 12.213L18.3839 13.3839C17.8958 13.8721 17.1043 13.8721 16.6162 13.3839C16.1655 12.9333 16.1309 12.2243 16.5122 11.7339L16.6162 11.6162L17.7871 10.4464L17.635 10.1491C16.8401 8.52241 16.5948 6.79003 17.2921 5.11088C17.4012 4.84798 17.5329 4.59143 17.6872 4.34209C18.6962 2.71214 20.3851 1.76172 22.5052 1.33823C23.9917 1.04131 25.5424 1.02574 26.9879 1.17416ZM7.65964 1.33823C9.77975 1.76172 11.4686 2.71214 12.4777 4.3421C12.632 4.59143 12.7636 4.84798 12.8728 5.11088C13.5701 6.79003 13.3247 8.52241 12.5299 10.1491L12.3778 10.4464L13.5487 11.6162C14.0369 12.1043 14.0369 12.8958 13.5487 13.3839C13.0981 13.8346 12.3891 13.8692 11.8987 13.4879L11.781 13.3839L10.6112 12.213L10.3139 12.3651C8.6872 13.16 6.95483 13.4053 5.27569 12.708C5.01278 12.5989 4.75622 12.4672 4.50688 12.3129C2.87693 11.3039 1.92652 9.61496 1.50303 7.49485C1.20611 6.0084 1.19054 4.45769 1.33895 3.01219L1.37948 2.65616L1.43309 2.28718L1.4662 2.14496L1.52099 1.99511L1.59719 1.84938L1.69742 1.70831L1.78095 1.61615L1.83682 1.56355L1.94437 1.47855L2.06054 1.40576L2.17883 1.34808L2.30249 1.30345C2.35277 1.28811 2.40516 1.27576 2.45849 1.26684L2.67649 1.23371L2.9886 1.19456C3.04794 1.18778 3.1108 1.18095 3.17699 1.17416C4.62249 1.02574 6.17319 1.04131 7.65964 1.33823ZM26.4034 5.36816L21.4376 10.3311C22.3124 10.6616 23.1672 10.7161 23.9304 10.3992C24.0695 10.3414 24.2067 10.2711 24.3421 10.1872C25.2974 9.59581 25.9103 8.50669 26.2103 7.00515C26.3161 6.47511 26.378 5.92351 26.4034 5.36816ZM3.7615 5.36816C3.78689 5.9235 3.84872 6.47511 3.95459 7.00515C4.25453 8.50669 4.86742 9.59581 5.82278 10.1872C5.9582 10.2711 6.09532 10.3414 6.23442 10.3992C6.9977 10.7161 7.85251 10.6616 8.72725 10.3311L3.7615 5.36816ZM5.53235 3.59668L10.4954 8.56371C10.8264 7.68853 10.8811 6.83326 10.564 6.06962C10.5062 5.93052 10.4358 5.7934 10.352 5.65799C9.7606 4.70263 8.67148 4.08973 7.16994 3.7898C6.63971 3.68389 6.0879 3.62205 5.53235 3.59668ZM24.6319 3.5967C24.0766 3.62209 23.525 3.68393 22.9949 3.7898C21.4934 4.08973 20.4043 4.70263 19.8129 5.65798C19.729 5.7934 19.6587 5.93052 19.6009 6.06962C19.284 6.8329 19.3384 7.68771 19.669 8.56246L24.6319 3.5967Z" fill="#4F4F4F"/>
</svg>
