<svg width="30" height="30" viewBox="0 0 30 30" fill="none" xmlns="http://www.w3.org/2000/svg">
<path fill-rule="evenodd" clip-rule="evenodd" d="M15 3.75C12.9289 3.75 11.25 5.42893 11.25 7.5C11.25 9.57107 12.9289 11.25 15 11.25C17.0711 11.25 18.75 9.57107 18.75 7.5C18.75 5.42893 17.0711 3.75 15 3.75ZM8.75 7.5C8.75 4.04822 11.5482 1.25 15 1.25C18.4518 1.25 21.25 4.04822 21.25 7.5C21.25 10.9518 18.4518 13.75 15 13.75C11.5482 13.75 8.75 10.9518 8.75 7.5ZM2.5 27.5C2.5 20.5965 8.09646 15 15 15C21.9035 15 27.5 20.5965 27.5 27.5C27.5 28.1904 26.9404 28.75 26.25 28.75C25.5596 28.75 25 28.1904 25 27.5C25 21.9772 20.5228 17.5 15 17.5C9.47717 17.5 5 21.9772 5 27.5C5 28.1904 4.44036 28.75 3.75 28.75C3.05964 28.75 2.5 28.1904 2.5 27.5Z" fill="#4F4F4F"/>
</svg>
