<svg width="30" height="30" viewBox="0 0 30 30" fill="none" xmlns="http://www.w3.org/2000/svg">
<path d="M22.5 2.5H27.5V7.5H22.5V2.5Z" fill="#4F4F4F"/>
<path fill-rule="evenodd" clip-rule="evenodd" d="M22.5 12.5V7.5H17.5V2.5H12.5V7.5H7.5V2.5H2.5V7.5H7.5V12.5H2.5V17.5H7.5V22.5H2.5V27.5H7.5V22.5H12.5V27.5H17.5V22.5H22.5V27.5H27.5V22.5H22.5V17.5H27.5V12.5H22.5ZM17.5 12.5H22.5V17.5H17.5V12.5ZM12.5 12.5V7.5H17.5V12.5H12.5ZM12.5 17.5H7.5V12.5H12.5V17.5ZM12.5 17.5H17.5V22.5H12.5V17.5Z" fill="#4F4F4F"/>
</svg>
