<svg width="65" height="65" viewBox="0 0 65 65" fill="none" xmlns="http://www.w3.org/2000/svg">
<path d="M21.6667 25.2213C21.6667 19.2383 26.517 14.388 32.5 14.388C38.4831 14.388 43.3334 19.2383 43.3334 25.2213C43.3334 30.2692 39.8809 34.5107 35.2084 35.7134V38.763C35.2084 40.2588 33.9958 41.4713 32.5 41.4713C31.0043 41.4713 29.7917 40.2588 29.7917 38.763V33.3463C29.7917 31.8506 31.0043 30.638 32.5 30.638C35.4916 30.638 37.9167 28.2129 37.9167 25.2213C37.9167 22.2298 35.4916 19.8047 32.5 19.8047C29.5085 19.8047 27.0834 22.2298 27.0834 25.2213C27.0834 26.7171 25.8708 27.9297 24.375 27.9297C22.8793 27.9297 21.6667 26.7171 21.6667 25.2213Z" fill="white"/>
<path d="M35.8855 47.5651C35.8855 49.4348 34.3697 50.9505 32.5 50.9505C30.6303 50.9505 29.1146 49.4348 29.1146 47.5651C29.1146 45.6954 30.6303 44.1797 32.5 44.1797C34.3697 44.1797 35.8855 45.6954 35.8855 47.5651Z" fill="white"/>
<path fill-rule="evenodd" clip-rule="evenodd" d="M11.4342 11.4341C16.8225 6.04583 24.2741 2.70831 32.5 2.70831C40.726 2.70831 48.1776 6.04583 53.5659 11.4341C58.9541 16.8224 62.2917 24.274 62.2917 32.5C62.2917 40.7259 58.9542 48.1775 53.5659 53.5658C48.1776 58.9541 40.726 62.2916 32.5 62.2916C24.2741 62.2916 16.8225 58.9541 11.4342 53.5658C6.04591 48.1776 2.70837 40.7259 2.70837 32.5C2.70837 24.274 6.04593 16.8224 11.4342 11.4341ZM32.5 8.12498C25.7684 8.12498 19.6783 10.8503 15.2643 15.2643C10.8503 19.6783 8.12504 25.7683 8.12504 32.5C8.12504 39.2316 10.8503 45.3217 15.2643 49.7357C19.6784 54.1497 25.7684 56.875 32.5 56.875C39.2317 56.875 45.3217 54.1497 49.7357 49.7357C54.1497 45.3217 56.875 39.2316 56.875 32.5C56.875 25.7683 54.1497 19.6783 49.7357 15.2643C45.3217 10.8503 39.2317 8.12498 32.5 8.12498Z" fill="white"/>
</svg>
