<svg width="65" height="65" viewBox="0 0 65 65" fill="none" xmlns="http://www.w3.org/2000/svg">
<path fill-rule="evenodd" clip-rule="evenodd" d="M39.2708 13.5417C39.2708 8.30647 43.5148 4.0625 48.75 4.0625C53.9851 4.0625 58.2292 8.30647 58.2292 13.5417C58.2292 18.7768 53.9852 23.0208 48.75 23.0208C43.5148 23.0208 39.2708 18.7768 39.2708 13.5417ZM48.75 9.47917C46.5064 9.47917 44.6875 11.298 44.6875 13.5417C44.6875 15.7853 46.5064 17.6042 48.75 17.6042C50.9936 17.6042 52.8125 15.7853 52.8125 13.5417C52.8125 11.298 50.9936 9.47917 48.75 9.47917ZM26.2014 16.3964C26.8741 16.1634 27.6116 16.2047 28.2541 16.5114L43.1457 23.6189C44.0021 24.0276 44.5821 24.8547 44.6746 25.7991C44.7671 26.7435 44.3586 27.6674 43.5978 28.2345L31.8039 37.0263L43.4683 44.7049C44.0925 45.1158 44.5192 45.7664 44.6474 46.5026C44.7755 47.2388 44.5938 47.9953 44.1452 48.593L34.6773 61.2065C33.7793 62.4027 32.0816 62.6446 30.8854 61.7467C29.6891 60.8487 29.4473 59.151 30.3452 57.9548L38.0837 47.6452L25.5983 39.4262C24.8607 38.9406 24.4061 38.1259 24.3803 37.2431C24.3546 36.3603 24.7608 35.5204 25.4689 34.9926L36.7621 26.5741L26.9237 21.8784L17.1361 25.2674C15.7227 25.7568 14.1801 25.0077 13.6907 23.5943C13.2013 22.1809 13.9504 20.6383 15.3638 20.1489L26.2014 16.3964ZM61.5568 21.7971C62.5811 22.8871 62.5277 24.6011 61.4376 25.6254L53.3149 33.2574C52.4629 34.058 51.1934 34.2215 50.1664 33.6629L46.535 31.688C45.2209 30.9734 44.735 29.3289 45.4496 28.0148C46.1642 26.7008 47.8088 26.2149 49.1228 26.9295L51.0334 27.9686L57.7285 21.6778C58.8186 20.6536 60.5326 20.707 61.5568 21.7971ZM24.454 40.5606C25.6453 41.465 25.8779 43.164 24.9735 44.3554L20.952 49.6526C20.7273 49.9486 20.444 50.1952 20.1198 50.3771L6.74689 57.8781C5.44232 58.6098 3.79157 58.1455 3.05983 56.8409C2.32809 55.5363 2.79245 53.8856 4.09702 53.1538L16.9785 45.9285L20.6592 41.0801C21.5636 39.8887 23.2626 39.6562 24.454 40.5606Z" fill="white"/>
</svg>
