<svg width="30" height="34" viewBox="0 0 30 34" fill="none" xmlns="http://www.w3.org/2000/svg">
<path fill-rule="evenodd" clip-rule="evenodd" d="M8.56284 33.6667C7.87618 33.6667 7.22451 33.6133 6.61118 33.5083L6.24784 33.44C2.29618 32.6183 -0.000488281 29.5917 -0.000488281 24.985V9.015C-0.000488281 8.45833 0.032845 7.925 0.0995117 7.415C0.681178 2.94 3.75618 0.333332 8.56284 0.333332H21.4378C26.7645 0.333332 29.9495 3.53333 29.9995 8.88667V9.015V24.985C29.9995 30.4133 26.8062 33.6667 21.4378 33.6667H8.56284ZM8.56285 2.76167C4.46952 2.76167 2.39452 4.86667 2.39452 9.015V24.985C2.39452 29.1333 4.46952 31.2383 8.56285 31.2383H21.4228C25.5145 31.2383 27.5762 29.1333 27.5762 24.985V9.015C27.5762 4.86667 25.5145 2.76167 21.4228 2.76167H8.56285ZM22.1762 24.0567C22.1762 23.39 21.6445 22.85 20.9878 22.85H8.96949C8.31282 22.85 7.77949 23.39 7.77949 24.0567C7.77949 24.7233 8.31282 25.2633 8.96949 25.2633H20.9878C21.6445 25.2633 22.1762 24.7233 22.1762 24.0567ZM20.9879 15.785C21.4462 15.735 21.8945 15.955 22.1395 16.35C22.3845 16.7483 22.3845 17.2517 22.1395 17.65C21.8945 18.045 21.4462 18.265 20.9879 18.215H8.96952C8.35952 18.145 7.89785 17.6233 7.89785 17C7.89785 16.3767 8.35952 15.8533 8.96952 15.785H20.9879ZM14.6278 9.95166C14.6278 9.32833 14.1661 8.805 13.5561 8.73666H8.98448C8.37281 8.805 7.91114 9.32833 7.91114 9.95166C7.91114 10.5733 8.37281 11.0967 8.98448 11.165H13.5561C14.1661 11.0967 14.6278 10.5733 14.6278 9.95166Z" fill="#1A9264"/>
</svg>
