<svg width="34" height="34" viewBox="0 0 34 34" fill="none" xmlns="http://www.w3.org/2000/svg">
<path fill-rule="evenodd" clip-rule="evenodd" d="M10.6548 14.0625L22.904 1.83367C24.91 -0.166781 28.1609 -0.166781 30.1669 1.83367L32.1621 3.82557C34.1682 5.82836 34.1682 9.07666 32.1621 11.0773L19.8544 23.3646C18.9565 24.261 17.7389 24.7648 16.4691 24.7648H10.3292C9.63831 24.7648 9.0831 24.1965 9.10028 23.507L9.25436 17.3212C9.28526 16.0962 9.78644 14.9295 10.6548 14.0625ZM30.4236 5.56118L28.4293 3.57021C27.3833 2.52707 25.6876 2.52707 24.642 3.56975L23.6344 4.57569L29.416 10.3476L30.4241 9.34123C31.4694 8.29873 31.4694 6.60526 30.4236 5.56118ZM27.6775 12.0832L21.8959 6.31129L12.3933 15.7982C11.9709 16.2198 11.7272 16.7873 11.7122 17.3827L11.5883 22.3088L16.4691 22.3103C17.0095 22.3103 17.5305 22.1226 17.945 21.7835L18.1158 21.629L27.6775 12.0832ZM15.8914 0.396493C16.5703 0.396493 17.1207 0.945956 17.1207 1.62375C17.1207 2.24507 16.6582 2.75854 16.0582 2.83981L15.8914 2.85101H9.76292C5.62993 2.85101 2.95288 5.58814 2.79898 9.83874L2.79197 10.2293V23.8339C2.79197 28.1809 5.33884 31.0402 9.39047 31.2047L9.76292 31.2121H24.226C28.3693 31.2121 31.0382 28.4809 31.1916 24.2249L31.1986 23.8339V17.2427C31.1986 16.5649 31.749 16.0154 32.4279 16.0154C33.0503 16.0154 33.5646 16.4771 33.646 17.0761L33.6572 17.2427V23.8339C33.6572 29.4991 30.0627 33.4823 24.6095 33.6604L24.226 33.6667H9.76292C4.22555 33.6667 0.505421 29.8119 0.339184 24.2263L0.333374 23.8339V10.2293C0.333374 4.56964 3.93713 0.581103 9.38021 0.402729L9.76292 0.396493H15.8914Z" fill="#1A9264"/>
</svg>
