<svg width="40" height="40" viewBox="0 0 40 40" fill="none" xmlns="http://www.w3.org/2000/svg">
<path d="M13.3333 15.5208C13.3333 11.8389 16.3181 8.85417 20 8.85417C23.6818 8.85417 26.6666 11.8389 26.6666 15.5208C26.6666 18.6272 24.542 21.2374 21.6666 21.9775V23.8542C21.6666 24.7746 20.9204 25.5208 20 25.5208C19.0795 25.5208 18.3333 24.7746 18.3333 23.8542V20.5208C18.3333 19.6004 19.0795 18.8542 20 18.8542C21.8409 18.8542 23.3333 17.3618 23.3333 15.5208C23.3333 13.6799 21.8409 12.1875 20 12.1875C18.159 12.1875 16.6666 13.6799 16.6666 15.5208C16.6666 16.4413 15.9204 17.1875 15 17.1875C14.0795 17.1875 13.3333 16.4413 13.3333 15.5208Z" fill="#1A9264"/>
<path d="M22.0833 29.2708C22.0833 30.4214 21.1505 31.3542 20 31.3542C18.8494 31.3542 17.9166 30.4214 17.9166 29.2708C17.9166 28.1203 18.8494 27.1875 20 27.1875C21.1505 27.1875 22.0833 28.1203 22.0833 29.2708Z" fill="#1A9264"/>
<path fill-rule="evenodd" clip-rule="evenodd" d="M7.03634 7.03637C10.3522 3.72053 14.9378 1.66667 20 1.66667C25.0621 1.66667 29.6477 3.72053 32.9636 7.03637C36.2794 10.3523 38.3333 14.9379 38.3333 20C38.3333 25.0621 36.2794 29.6477 32.9636 32.9636C29.6477 36.2795 25.0621 38.3333 20 38.3333C14.9378 38.3333 10.3522 36.2795 7.03634 32.9636C3.72049 29.6477 1.66663 25.0621 1.66663 20C1.66663 14.9379 3.7205 10.3523 7.03634 7.03637ZM20 5C15.8574 5 12.1097 6.67711 9.39334 9.39341C6.67705 12.1097 4.99996 15.8575 4.99996 20C4.99996 24.1426 6.67707 27.8903 9.39336 30.6066C12.1097 33.3229 15.8574 35 20 35C24.1425 35 27.8902 33.3229 30.6065 30.6066C33.3228 27.8903 35 24.1426 35 20C35 15.8575 33.3228 12.1097 30.6065 9.3934C27.8902 6.67711 24.1425 5 20 5Z" fill="#1A9264"/>
</svg>
