<svg width="130" height="130" viewBox="0 0 130 130" fill="none" xmlns="http://www.w3.org/2000/svg">
<path d="M43.3334 50.4427C43.3334 38.4766 53.0339 28.7761 65.0001 28.7761C76.9662 28.7761 86.6667 38.4766 86.6667 50.4427C86.6667 60.5385 79.7617 69.0216 70.4167 71.4268V77.5261C70.4167 80.5176 67.9916 82.9427 65.0001 82.9427C62.0085 82.9427 59.5834 80.5176 59.5834 77.5261V66.6927C59.5834 63.7012 62.0085 61.2761 65.0001 61.2761C70.9831 61.2761 75.8334 56.4258 75.8334 50.4427C75.8334 44.4597 70.9831 39.6094 65.0001 39.6094C59.017 39.6094 54.1667 44.4597 54.1667 50.4427C54.1667 53.4343 51.7416 55.8594 48.7501 55.8594C45.7585 55.8594 43.3334 53.4343 43.3334 50.4427Z" fill="#1A9264"/>
<path d="M71.7709 95.1302C71.7709 98.8696 68.7395 101.901 65.0001 101.901C61.2607 101.901 58.2292 98.8696 58.2292 95.1302C58.2292 91.3908 61.2607 88.3594 65.0001 88.3594C68.7395 88.3594 71.7709 91.3908 71.7709 95.1302Z" fill="#1A9264"/>
<path fill-rule="evenodd" clip-rule="evenodd" d="M22.8683 22.8682C33.645 12.0917 48.5482 5.41669 65.0001 5.41669C81.4519 5.41669 96.3552 12.0917 107.132 22.8682C117.908 33.6449 124.583 48.5481 124.583 65C124.583 81.4519 117.908 96.3552 107.132 107.132C96.3552 117.908 81.452 124.583 65.0001 124.583C48.5482 124.583 33.6449 117.908 22.8683 107.132C12.0918 96.3552 5.41675 81.4519 5.41675 65C5.41675 48.5481 12.0919 33.6448 22.8683 22.8682ZM65.0001 16.25C51.5368 16.25 39.3567 21.7006 30.5286 30.5286C21.7006 39.3567 16.2501 51.5367 16.2501 65C16.2501 78.4633 21.7007 90.6434 30.5286 99.4714C39.3567 108.299 51.5368 113.75 65.0001 113.75C78.4634 113.75 90.6434 108.299 99.4714 99.4714C108.299 90.6434 113.75 78.4633 113.75 65C113.75 51.5367 108.299 39.3566 99.4715 30.5286C90.6435 21.7006 78.4634 16.25 65.0001 16.25Z" fill="#1A9264"/>
</svg>
