<svg width="32" height="34" viewBox="0 0 32 34" fill="none" xmlns="http://www.w3.org/2000/svg">
<path fill-rule="evenodd" clip-rule="evenodd" d="M17.0268 0.333332H14.9684C13.8091 0.333332 12.6976 0.785916 11.8799 1.59096C11.1551 2.3045 10.7117 3.24527 10.6262 4.24634L10.612 4.56968C10.5962 5.62254 9.74565 6.44391 8.70165 6.4438C8.46488 6.44133 8.21898 6.3873 7.9926 6.2855L7.77054 6.16952C5.71921 5.01695 3.0521 5.72294 1.84859 7.76943L0.76645 9.51159C-0.38422 11.4675 0.183305 13.9246 2.04077 15.1901L2.2991 15.3525C2.93577 15.714 3.29974 16.3316 3.29974 17C3.29974 17.6147 2.99148 18.1895 2.47738 18.5381L2.30187 18.6458C0.377482 19.7354 -0.380753 22.1402 0.586569 24.1407L0.727943 24.407L1.79017 26.204C2.34228 27.1805 3.2884 27.9161 4.40738 28.2277C5.39918 28.5039 6.45763 28.4275 7.39599 28.014L7.69271 27.8689C8.19211 27.586 8.70803 27.5182 9.19226 27.6451C9.67648 27.7721 10.0889 28.0833 10.3378 28.5096C10.475 28.7364 10.5556 28.9704 10.5843 29.2128L10.5985 29.4589C10.596 31.7488 12.5536 33.6667 14.9684 33.6667H17.0273C19.3074 33.6667 21.1999 31.9505 21.385 29.7357L21.3985 29.4497C21.3972 28.8964 21.597 28.4207 21.9545 28.0704C22.312 27.7201 22.7976 27.5243 23.3033 27.5267C23.5357 27.5331 23.791 27.5901 24.0276 27.6938L24.2545 27.8083C26.1684 28.8906 28.6763 28.3346 29.968 26.5148L30.1338 26.2617L31.2331 24.4674C31.825 23.4722 31.9853 22.3029 31.6864 21.205C31.4216 20.2319 30.8144 19.3829 29.9739 18.8068L29.6956 18.6322C29.212 18.3582 28.8932 17.9513 28.7633 17.4739C28.6334 16.9966 28.703 16.4882 28.9569 16.0613C29.0974 15.821 29.2843 15.6209 29.5085 15.4678L29.9373 15.2038C31.6738 14.0488 32.3242 11.7753 31.4101 9.86403L31.3153 9.67791C31.2948 9.62936 31.2711 9.58203 31.2441 9.53623L30.2222 7.7988C29.0851 5.8653 26.6265 5.11496 24.5766 6.05916L24.3035 6.19731C23.8137 6.47813 23.2964 6.54911 22.8094 6.42523C22.3225 6.30135 21.9058 5.99278 21.6513 5.56757C21.5207 5.35193 21.4401 5.11799 21.4113 4.87558L21.3972 4.62943C21.4331 3.5828 20.9874 2.46134 20.1637 1.63118C19.3401 0.801023 18.2085 0.332857 17.0268 0.333332ZM14.9684 2.74623H17.0273C17.5439 2.74602 18.0381 2.95049 18.3978 3.31305C18.7575 3.67561 18.9521 4.16539 18.9373 4.67081L18.9592 5.0909C19.0337 5.73307 19.2261 6.29173 19.5301 6.7936C20.1121 7.76608 21.0704 8.47577 22.1905 8.76068C23.3105 9.0456 24.5001 8.88234 25.4971 8.30692L25.6691 8.22109L25.854 8.1485C26.668 7.88088 27.6273 8.21959 28.0883 9.00347L29.063 10.6621L29.0841 10.7088L29.2019 10.9314C29.5963 11.7584 29.2667 12.8045 28.4133 13.2936L28.1454 13.4589C27.5772 13.8455 27.1414 14.3119 26.8243 14.8544C26.245 15.8284 26.0848 16.9978 26.3836 18.0957C26.6553 19.0937 27.286 19.9579 28.1537 20.5325L28.6075 20.8136C28.9276 21.0344 29.1916 21.4036 29.3068 21.8267C29.4367 22.3041 29.367 22.8125 29.1132 23.2393L28.0392 24.9928L27.9184 25.1778C27.4215 25.8763 26.4411 26.1357 25.6145 25.7803L25.0879 25.5167C24.5005 25.2578 23.9259 25.1296 23.3421 25.1143C22.1522 25.1084 21.0353 25.5585 20.213 26.3642C19.3907 27.1698 18.9312 28.2641 18.9368 29.4034L18.9274 29.5852C18.8497 30.5039 18.0228 31.2538 17.0273 31.2538H14.9684C13.984 31.2538 13.1737 30.5241 13.07 29.5867L13.0364 28.9974C12.9619 28.3553 12.7696 27.7966 12.4655 27.2947C11.9004 26.3266 10.9476 25.6076 9.82888 25.3142C8.71015 25.0209 7.51818 25.1776 6.51792 25.7494L6.33673 25.8364C5.97607 25.994 5.51377 26.0273 5.08063 25.9067C4.59193 25.7707 4.17873 25.4494 3.93246 25.014L2.88371 23.2415L2.7899 23.0639C2.39263 22.24 2.72249 21.1938 3.57724 20.7093L3.83691 20.5494C5.0568 19.7234 5.7625 18.4076 5.7625 17C5.7625 15.5716 5.03653 14.2444 3.83984 13.4517L3.40532 13.1821C2.63753 12.6578 2.38954 11.5841 2.8854 10.7409L3.96755 8.99874C4.5081 8.08025 5.67292 7.77192 6.58643 8.28476L6.90703 8.45042C7.50585 8.72154 8.09305 8.85057 8.6887 8.85663C10.9994 8.85693 12.8889 7.11812 13.0613 4.9025L13.0837 4.39435C13.1176 4.01234 13.3103 3.60327 13.6255 3.29304C13.981 2.94301 14.4643 2.74623 14.9684 2.74623ZM16.0054 11.553C12.9349 11.553 10.4458 13.9917 10.4458 17C10.4458 20.0083 12.9349 22.447 16.0054 22.447C19.0758 22.447 21.565 20.0083 21.565 17C21.565 13.9917 19.0758 11.553 16.0054 11.553ZM16.0054 13.9659C17.7157 13.9659 19.1022 15.3243 19.1022 17C19.1022 18.6757 17.7157 20.0341 16.0054 20.0341C14.295 20.0341 12.9085 18.6757 12.9085 17C12.9085 15.3243 14.295 13.9659 16.0054 13.9659Z" fill="#1A9264"/>
</svg>
