<svg width="40" height="40" viewBox="0 0 40 40" fill="none" xmlns="http://www.w3.org/2000/svg">
<path fill-rule="evenodd" clip-rule="evenodd" d="M0.833374 5C0.833374 4.07952 1.57957 3.33333 2.50004 3.33333H5.41671C6.18149 3.33333 6.84813 3.85383 7.03361 4.59577L7.968 8.33333H36.6667C37.1799 8.33333 37.6645 8.56978 37.9804 8.97431C38.2962 9.37884 38.4081 9.90632 38.2836 10.4042L34.1169 27.0709C33.9315 27.8128 33.2648 28.3333 32.5 28.3333H10.8334C10.0686 28.3333 9.40196 27.8128 9.21647 27.0709L4.11541 6.66667H2.50004C1.57957 6.66667 0.833374 5.92047 0.833374 5ZM10.8334 28.3333C8.53219 28.3333 6.66671 30.1988 6.66671 32.5C6.66671 34.8012 8.53219 36.6667 10.8334 36.6667C13.1346 36.6667 15 34.8012 15 32.5C15 30.1988 13.1346 28.3333 10.8334 28.3333ZM32.5 28.3333C30.1989 28.3333 28.3334 30.1988 28.3334 32.5C28.3334 34.8012 30.1989 36.6667 32.5 36.6667C34.8012 36.6667 36.6667 34.8012 36.6667 32.5C36.6667 30.1988 34.8012 28.3333 32.5 28.3333ZM8.80134 11.6667L12.1347 25H31.1987L34.5321 11.6667H8.80134ZM21.6667 13.3333C22.5872 13.3333 23.3334 14.0795 23.3334 15V16.6667H25C25.9205 16.6667 26.6667 17.4129 26.6667 18.3333C26.6667 19.2538 25.9205 20 25 20H23.3334V21.6667C23.3334 22.5871 22.5872 23.3333 21.6667 23.3333C20.7462 23.3333 20 22.5871 20 21.6667V20H18.3334C17.4129 20 16.6667 19.2538 16.6667 18.3333C16.6667 17.4129 17.4129 16.6667 18.3334 16.6667H20V15C20 14.0795 20.7462 13.3333 21.6667 13.3333ZM10.8334 31.6667C10.3731 31.6667 10 32.0398 10 32.5C10 32.9602 10.3731 33.3333 10.8334 33.3333C11.2936 33.3333 11.6667 32.9602 11.6667 32.5C11.6667 32.0398 11.2936 31.6667 10.8334 31.6667ZM32.5 31.6667C32.0398 31.6667 31.6667 32.0398 31.6667 32.5C31.6667 32.9602 32.0398 33.3333 32.5 33.3333C32.9603 33.3333 33.3334 32.9602 33.3334 32.5C33.3334 32.0398 32.9603 31.6667 32.5 31.6667Z" fill="#1A9264"/>
</svg>
